<svg width="206" height="206" viewBox="0 0 206 206" fill="none" xmlns="http://www.w3.org/2000/svg">
<path d="M64.3754 102.999C27.6817 102.999 0.000427246 90.1243 0.000427246 72.9577C0.000427246 55.791 27.6817 42.916 64.3754 42.916C101.069 42.916 128.75 55.791 128.75 72.9577C128.75 90.1243 101.069 102.999 64.3754 102.999ZM64.3754 51.4993C31.5013 51.4993 8.58376 62.7864 8.58376 72.9577C8.58376 83.1289 31.5013 94.416 64.3754 94.416C97.2496 94.416 120.167 83.1289 120.167 72.9577C120.167 62.7864 97.2496 51.4993 64.3754 51.4993Z" fill="#BBD9D7"/>
<path d="M64.3754 128.749C27.6817 128.749 0.000427246 115.874 0.000427246 98.7077V72.9577C0.000427246 71.8195 0.452584 70.7279 1.25743 69.923C2.06227 69.1182 3.15387 68.666 4.29209 68.666C5.43031 68.666 6.52192 69.1182 7.32676 69.923C8.1316 70.7279 8.58376 71.8195 8.58376 72.9577C8.58376 83.1289 31.5013 94.416 64.3754 94.416C97.2496 94.416 120.167 83.1289 120.167 72.9577C120.167 71.8195 120.619 70.7279 121.424 69.923C122.229 69.1182 123.321 68.666 124.459 68.666C125.597 68.666 126.689 69.1182 127.493 69.923C128.298 70.7279 128.75 71.8195 128.75 72.9577V98.7077C128.75 115.874 101.069 128.749 64.3754 128.749ZM8.58376 88.4077V98.7077C8.58376 108.879 31.5013 120.166 64.3754 120.166C97.2496 120.166 120.167 108.879 120.167 98.7077V88.4077C109.223 97.2914 88.795 102.999 64.3754 102.999C39.9558 102.999 19.5275 97.2914 8.58376 88.4077Z" fill="#BBD9D7"/>
<path d="M64.3754 154.499C27.6817 154.499 0.000427246 141.624 0.000427246 124.458V98.7077C0.000427246 97.5695 0.452584 96.4779 1.25743 95.673C2.06227 94.8682 3.15387 94.416 4.29209 94.416C5.43031 94.416 6.52192 94.8682 7.32676 95.673C8.1316 96.4779 8.58376 97.5695 8.58376 98.7077C8.58376 108.879 31.5013 120.166 64.3754 120.166C97.2496 120.166 120.167 108.879 120.167 98.7077C120.167 97.5695 120.619 96.4779 121.424 95.673C122.229 94.8682 123.321 94.416 124.459 94.416C125.597 94.416 126.689 94.8682 127.493 95.673C128.298 96.4779 128.75 97.5695 128.75 98.7077V124.458C128.75 141.624 101.069 154.499 64.3754 154.499ZM8.58376 114.158V124.458C8.58376 134.629 31.5013 145.916 64.3754 145.916C97.2496 145.916 120.167 134.629 120.167 124.458V114.158C109.223 123.041 88.795 128.749 64.3754 128.749C39.9558 128.749 19.5275 123.041 8.58376 114.158Z" fill="#BBD9D7"/>
<path d="M64.3754 180.249C27.6817 180.249 0.000427246 167.374 0.000427246 150.208V124.458C0.000427246 123.319 0.452584 122.228 1.25743 121.423C2.06227 120.618 3.15387 120.166 4.29209 120.166C5.43031 120.166 6.52192 120.618 7.32676 121.423C8.1316 122.228 8.58376 123.319 8.58376 124.458C8.58376 134.629 31.5013 145.916 64.3754 145.916C97.2496 145.916 120.167 134.629 120.167 124.458C120.167 123.319 120.619 122.228 121.424 121.423C122.229 120.618 123.321 120.166 124.459 120.166C125.597 120.166 126.689 120.618 127.493 121.423C128.298 122.228 128.75 123.319 128.75 124.458V150.208C128.75 167.374 101.069 180.249 64.3754 180.249ZM8.58376 139.908V150.208C8.58376 160.379 31.5013 171.666 64.3754 171.666C97.2496 171.666 120.167 160.379 120.167 150.208V139.908C109.223 148.791 88.795 154.499 64.3754 154.499C39.9558 154.499 19.5275 148.791 8.58376 139.908Z" fill="#BBD9D7"/>
<path fill-rule="evenodd" clip-rule="evenodd" d="M0.000427246 175.958C0.000427246 193.124 27.6818 205.999 64.3755 205.999C101.069 205.999 128.751 193.124 128.751 175.958V150.208C128.751 149.069 128.298 147.978 127.494 147.173C126.689 146.368 125.597 145.916 124.459 145.916C123.321 145.916 122.229 146.368 121.424 147.173C120.619 147.978 120.167 149.069 120.167 150.208C120.167 160.379 97.2497 171.666 64.3755 171.666C31.5014 171.666 8.58376 160.379 8.58376 150.208C8.58376 149.069 8.13161 147.978 7.32676 147.173C6.52192 146.368 5.43031 145.916 4.29209 145.916C3.15387 145.916 2.06227 146.368 1.25743 147.173C0.452583 147.978 0.000427246 149.069 0.000427246 150.208V175.958ZM8.58376 175.958V165.658C19.5275 174.541 39.9559 180.249 64.3755 180.249C88.7951 180.249 109.223 174.541 120.167 165.658V175.958C120.167 186.129 97.2497 197.416 64.3755 197.416C31.5014 197.416 8.58376 186.129 8.58376 175.958Z" fill="#BBD9D7"/>
<path d="M141.625 60.0833C135.7 60.0833 129.78 59.7106 123.901 58.9675L125.017 50.3842C130.524 51.1072 136.071 51.4799 141.625 51.5C174.5 51.5 197.417 40.2129 197.417 30.0417C197.417 19.8704 174.5 8.58333 141.625 8.58333C108.751 8.58333 85.8338 19.8704 85.8338 30.0417C85.9329 32.2281 86.799 34.3097 88.28 35.9213L81.5421 41.3717C78.8089 38.226 77.2872 34.2087 77.2504 30.0417C77.2504 12.875 104.932 0 141.625 0C178.319 0 206 12.875 206 30.0417C206 47.2083 178.319 60.0833 141.625 60.0833ZM141.625 111.583C138.621 111.583 135.66 111.583 132.785 111.326L133.3 102.743C136.003 102.743 138.793 103 141.625 103C174.5 103 197.417 91.7129 197.417 81.5417V71.2417C186.473 80.1254 166.045 85.8334 141.625 85.8334C138.621 85.8334 135.66 85.8334 132.785 85.5759L133.3 76.9925C136.003 76.9925 138.793 77.25 141.625 77.25C174.5 77.25 197.417 65.9629 197.417 55.7917C197.417 54.6535 197.869 53.5619 198.674 52.757C199.479 51.9522 200.571 51.5 201.709 51.5C202.847 51.5 203.939 51.9522 204.743 52.757C205.548 53.5619 206 54.6535 206 55.7917V81.5417C206 98.7084 178.319 111.583 141.625 111.583ZM141.625 163.083C138.621 163.083 135.66 163.083 132.785 162.826L133.3 154.243C136.003 154.243 138.793 154.5 141.625 154.5C174.5 154.5 197.417 143.213 197.417 133.042V122.742C186.473 131.625 166.045 137.333 141.625 137.333C138.621 137.333 135.66 137.333 132.785 137.076L133.3 128.493C136.003 128.493 138.793 128.75 141.625 128.75C174.5 128.75 197.417 117.463 197.417 107.292C197.417 106.153 197.869 105.062 198.674 104.257C199.479 103.452 200.571 103 201.709 103C202.847 103 203.939 103.452 204.743 104.257C205.548 105.062 206 106.153 206 107.292V133.042C206 150.208 178.319 163.083 141.625 163.083Z" fill="#BBD9D7"/>
<path d="M197.417 81.541H206V107.291H197.417V81.541ZM197.417 30.041H206V55.791H197.417V30.041Z" fill="#BBD9D7"/>
</svg>
