<svg width="206" height="206" viewBox="0 0 206 206" fill="none" xmlns="http://www.w3.org/2000/svg">
<path d="M103.001 111.583C91.966 111.583 81.1793 108.311 72.0044 102.181C62.8295 96.0503 55.6785 87.3368 51.4558 77.1422C47.233 66.9476 46.1282 55.7298 48.2809 44.9073C50.4336 34.0848 55.7473 24.1436 63.5499 16.341C71.3525 8.53842 81.2936 3.22478 92.1161 1.07205C102.939 -1.08069 114.157 0.0241737 124.351 4.24691C134.546 8.46965 143.259 15.6206 149.39 24.7955C155.52 33.9704 158.792 44.7571 158.792 55.7917C158.792 70.5886 152.914 84.7794 142.451 95.2424C131.988 105.705 117.797 111.583 103.001 111.583ZM103.001 8.58336C93.6636 8.58336 84.5364 11.3521 76.773 16.5394C69.0096 21.7267 62.9588 29.0996 59.3857 37.7258C55.8127 46.352 54.8778 55.8441 56.6993 65.0016C58.5209 74.1591 63.017 82.5708 69.6192 89.173C76.2214 95.7752 84.6331 100.271 93.7907 102.093C102.948 103.914 112.44 102.98 121.066 99.4065C129.693 95.8334 137.066 89.7826 142.253 82.0192C147.44 74.2559 150.209 65.1286 150.209 55.7917C150.209 43.2713 145.235 31.2636 136.382 22.4104C127.529 13.5571 115.521 8.58336 103.001 8.58336Z" fill="#BBD9D7"/>
<path d="M103 206C91.6671 206.001 80.6025 202.551 71.2788 196.109C61.9551 189.666 54.8144 180.537 50.8071 169.936C46.7997 159.335 46.1157 147.766 48.8462 136.767C51.5766 125.767 57.592 115.861 66.0917 108.365L71.7567 114.802C64.564 121.144 59.4733 129.526 57.162 138.833C54.8507 148.14 55.4284 157.93 58.8184 166.9C62.2083 175.87 68.2496 183.595 76.1384 189.047C84.0271 194.499 93.3891 197.42 102.979 197.42C112.568 197.42 121.93 194.499 129.819 189.047C137.707 183.595 143.749 175.87 147.139 166.9C150.529 157.93 151.106 148.14 148.795 138.833C146.484 129.526 141.393 121.144 134.2 114.802L139.908 108.365C148.408 115.861 154.423 125.767 157.154 136.767C159.884 147.766 159.2 159.335 155.193 169.936C151.186 180.537 144.045 189.666 134.721 196.109C125.398 202.551 114.333 206.001 103 206ZM42.9167 154.5H21.4583C15.7672 154.5 10.3092 152.239 6.285 148.215C2.26078 144.191 0 138.733 0 133.042L0 72.9583C0 67.2672 2.26078 61.8092 6.285 57.785C10.3092 53.7608 15.7672 51.5 21.4583 51.5H38.625V60.0833H21.4583C18.0437 60.0833 14.7689 61.4398 12.3543 63.8543C9.9398 66.2689 8.58333 69.5437 8.58333 72.9583V133.042C8.58333 136.456 9.9398 139.731 12.3543 142.146C14.7689 144.56 18.0437 145.917 21.4583 145.917H42.9167V154.5Z" fill="#BBD9D7"/>
<path d="M24.5022 76.0056L18.4081 69.9115L32.5706 55.7919L18.4081 41.6723L24.5022 35.5781L41.6689 52.7448C42.0712 53.1438 42.3904 53.6184 42.6083 54.1414C42.8262 54.6644 42.9384 55.2253 42.9384 55.7919C42.9384 56.3584 42.8262 56.9194 42.6083 57.4424C42.3904 57.9653 42.0712 58.44 41.6689 58.839L24.5022 76.0056ZM184.538 154.5H167.372V145.917H184.538C187.953 145.917 191.228 144.56 193.642 142.146C196.057 139.731 197.413 136.457 197.413 133.042V72.9585C197.413 69.5439 196.057 66.2691 193.642 63.8545C191.228 61.44 187.953 60.0835 184.538 60.0835H163.08V51.5002H184.538C187.356 51.5002 190.147 52.0552 192.75 53.1336C195.354 54.212 197.719 55.7926 199.712 57.7852C201.704 59.7778 203.285 62.1433 204.363 64.7468C205.442 67.3502 205.997 70.1406 205.997 72.9585V133.042C205.997 135.86 205.442 138.65 204.363 141.254C203.285 143.857 201.704 146.223 199.712 148.215C197.719 150.208 195.354 151.788 192.75 152.867C190.147 153.945 187.356 154.5 184.538 154.5Z" fill="#BBD9D7"/>
<path d="M181.495 170.422L164.328 153.255C163.926 152.856 163.607 152.381 163.389 151.858C163.171 151.335 163.059 150.774 163.059 150.208C163.059 149.641 163.171 149.08 163.389 148.557C163.607 148.034 163.926 147.56 164.328 147.161L181.495 129.994L187.589 136.088L173.426 150.208L187.589 164.327L181.495 170.422Z" fill="#BBD9D7"/>
</svg>
