<svg width="38" height="50" viewBox="0 0 38 50" fill="none" xmlns="http://www.w3.org/2000/svg">
<path fill-rule="evenodd" clip-rule="evenodd" d="M19 50C19 50 37.75 32.2313 37.75 18.75C37.75 13.7772 35.7746 9.00805 32.2583 5.49175C28.7419 1.97544 23.9728 0 19 0C14.0272 0 9.25805 1.97544 5.74175 5.49175C2.22544 9.00805 0.25 13.7772 0.25 18.75C0.25 32.2313 19 50 19 50ZM25.6291 25.3791C23.871 27.1373 21.4864 28.125 19 28.125C16.5136 28.125 14.129 27.1373 12.3709 25.3791C10.6127 23.621 9.625 21.2364 9.625 18.75C9.625 16.2636 10.6127 13.879 12.3709 12.1209C14.129 10.3627 16.5136 9.375 19 9.375C21.4864 9.375 23.871 10.3627 25.6291 12.1209C27.3873 13.879 28.375 16.2636 28.375 18.75C28.375 21.2364 27.3873 23.621 25.6291 25.3791Z" fill="#EB5757"/>
<path d="M19 28.125C21.4864 28.125 23.871 27.1373 25.6291 25.3791C27.3873 23.621 28.375 21.2364 28.375 18.75C28.375 16.2636 27.3873 13.879 25.6291 12.1209C23.871 10.3627 21.4864 9.375 19 9.375C16.5136 9.375 14.129 10.3627 12.3709 12.1209C10.6127 13.879 9.625 16.2636 9.625 18.75C9.625 21.2364 10.6127 23.621 12.3709 25.3791C14.129 27.1373 16.5136 28.125 19 28.125Z" fill="white"/>
</svg>
