<svg width="18" height="19" viewBox="0 0 18 19" fill="none" xmlns="http://www.w3.org/2000/svg">
<path d="M8.47266 3.17188H9.52734C9.62109 3.17188 9.66797 3.21875 9.66797 3.3125V15.6875C9.66797 15.7812 9.62109 15.8281 9.52734 15.8281H8.47266C8.37891 15.8281 8.33203 15.7812 8.33203 15.6875V3.3125C8.33203 3.21875 8.37891 3.17188 8.47266 3.17188Z" fill="#3A3E46"/>
<path d="M3.09375 8.83203H14.9062C15 8.83203 15.0469 8.87891 15.0469 8.97266V10.0273C15.0469 10.1211 15 10.168 14.9062 10.168H3.09375C3 10.168 2.95312 10.1211 2.95312 10.0273V8.97266C2.95312 8.87891 3 8.83203 3.09375 8.83203Z" fill="#3A3E46"/>
</svg>
